<svg width="34" height="71" viewBox="0 0 34 71" fill="none" xmlns="http://www.w3.org/2000/svg">
<path d="M0 59.6398L17.6003 31.1777C18.8072 29.1662 19.6117 27.4565 20.1146 26.0484C20.6175 24.6404 20.9192 22.7295 20.9192 20.5169V16.5946C20.9192 12.9739 19.4106 11.063 16.5946 11.063C13.7785 11.063 12.3705 13.0745 12.3705 17.0974V21.7238H0.402293V15.5888C0.402293 10.8619 1.91089 7.04011 4.92808 4.22407C7.94528 1.40802 11.8676 0 16.8963 0C21.8244 0 25.7467 1.50859 28.6633 4.32465C31.5799 7.24126 33.0886 11.1636 33.0886 15.9911V20.9192C33.0886 23.9364 32.6862 26.6519 31.8817 28.8645C31.0771 31.0771 29.7696 33.5914 28.0599 36.4075L13.7785 59.2375H33.0886V70.4012H0V59.6398Z" fill="black"/>
</svg>
