<svg width="205" height="230" viewBox="0 0 205 230" fill="none" xmlns="http://www.w3.org/2000/svg">
<path d="M93.9569 50.715C68.7567 58.2673 15.027 60.7488 1.71014 10.2562C25.215 -1.76583 77.6808 -12.4007 99.5056 41.2361C101.895 37.6141 105.655 26.3473 101.586 10.2562C105.825 8.32958 114.441 6.37212 114.996 13.9553C115.689 23.4342 99.7368 67.8232 92.1074 76.8398C84.4779 85.8563 93.9569 115.449 101.586 106.664C109.216 97.8783 86.5587 58.8067 41.0133 75.6838C-4.53212 92.5609 -22.7965 190.818 46.0996 225.034C58.6295 229.383 87.7532 233.661 107.905 217.846C109.705 216.433 110.618 213.901 108.503 213.03C106.688 212.283 103.489 211.89 98.1185 212.55C84.9403 214.168 105.285 225.497 118.926 228.271C132.566 231.045 180.886 234.282 200.075 175.097C218.434 116.705 177.119 57.4668 123.099 76.3334C118.104 78.0778 114.003 81.7215 109.287 84.1192C105.748 85.9187 102.638 85.731 103.205 79.3829C104.361 66.4361 105.979 57.4196 93.9569 50.715Z" stroke="black"/>
</svg>
