<svg width="17" height="35" viewBox="0 0 17 35" fill="none" xmlns="http://www.w3.org/2000/svg">
<path d="M0 29.65L8.75 15.5C9.35 14.5 9.75 13.65 10 12.95C10.25 12.25 10.4 11.3 10.4 10.2V8.25C10.4 6.45 9.65 5.5 8.25 5.5C6.85 5.5 6.15 6.5 6.15 8.5V10.8H0.199999V7.75C0.199999 5.4 0.949999 3.5 2.45 2.1C3.95 0.700002 5.9 0 8.4 0C10.85 0 12.8 0.750003 14.25 2.15001C15.7 3.6 16.45 5.55 16.45 7.95V10.4C16.45 11.9 16.25 13.25 15.85 14.35C15.45 15.45 14.8 16.7 13.95 18.1L6.85 29.45H16.45V35H0V29.65Z" fill="black"/>
</svg>
