<svg width="20" height="36" viewBox="0 0 20 36" fill="none" xmlns="http://www.w3.org/2000/svg">
<path d="M2.6 32.9C0.849998 31.2 0 28.75 0 25.5V9.95C0 6.7 0.9 4.25 2.75 2.55C4.55 0.850001 7 0 10 0C12.85 0 15.15 0.850001 16.9 2.45C18.7 4.1 19.55 6.5 19.55 9.7V10.75H13.4V9.7C13.4 8.4 13.1 7.35 12.4 6.65C11.75 5.95 10.9 5.55 9.85 5.55C8.55 5.55 7.6 6 7 6.9C6.4 7.8 6.15 9.15 6.15 10.95V24.8C6.15 28.2 7.35 29.85 9.85 29.85C11.05 29.85 11.95 29.45 12.55 28.65C13.15 27.85 13.45 26.65 13.45 25.1V21.45H9.8V16.6H19.6V25.5C19.6 28.7 18.65 31.15 16.8 32.85C14.95 34.55 12.55 35.4 9.65 35.4C6.65 35.4 4.3 34.6 2.6 32.9Z" fill="black"/>
</svg>
