<svg width="19" height="36" viewBox="0 0 19 36" fill="none" xmlns="http://www.w3.org/2000/svg">
<path d="M2.45 32.75C0.85 31 0 28.5 0 25.2H5.8C5.85 26.9 6.2 28.15 6.8 28.95C7.4 29.75 8.3 30.15 9.5 30.15C10.7 30.15 11.6 29.75 12.15 29.05C12.7 28.3 12.95 27.15 12.95 25.55C12.95 24.2 12.65 23.15 12.05 22.35C11.45 21.55 10.4 20.85 8.95 20.2L6.6 19.15C4.35 18.15 2.75 16.9 1.75 15.45C0.75 13.95 0.25 12 0.25 9.55C0.25 6.65 1.1 4.3 2.8 2.6C4.5 0.850001 6.75 0 9.6 0C12.45 0 14.65 0.850001 16.2 2.55C17.75 4.25 18.55 6.75 18.65 10H13C13 8.4 12.7 7.25 12.2 6.45C11.7 5.65 10.8 5.3 9.6 5.3C7.4 5.3 6.25 6.6 6.25 9.25C6.25 10.45 6.55 11.4 7.1 12.1C7.65 12.8 8.55 13.45 9.85 14L12.1 15C14.5 16.1 16.25 17.4 17.35 19C18.45 20.6 18.95 22.75 18.95 25.4C18.95 28.6 18.15 31.1 16.45 32.8C14.8 34.55 12.45 35.4 9.4 35.4C6.35 35.4 4.05 34.55 2.45 32.75Z" fill="black"/>
</svg>
