<svg width="178" height="622" viewBox="0 0 178 622" fill="none" xmlns="http://www.w3.org/2000/svg">
<path d="M51.4138 71.5464L173.988 604.037C175.041 608.612 172.186 613.174 167.611 614.227L150.62 618.138C146.045 619.191 141.483 616.336 140.43 611.762L17.8559 79.2711L51.4138 71.5464Z" stroke="#121212" stroke-width="3"/>
<path d="M134.168 591.246L170.65 582.848L175.45 603.701C176.689 609.083 173.33 614.45 167.948 615.689L150.956 619.6C145.574 620.839 140.207 617.481 138.968 612.098L134.168 591.246Z" fill="#121212"/>
<rect x="133.528" y="581.78" width="34.4359" height="7.86849" transform="rotate(-12.9631 133.528 581.78)" stroke="black" stroke-width="3"/>
<rect x="131.903" y="574.719" width="34.4359" height="7.86849" transform="rotate(-12.9631 131.903 574.719)" stroke="black" stroke-width="3"/>
<rect x="130.278" y="567.658" width="34.4359" height="7.86849" transform="rotate(-12.9631 130.278 567.658)" stroke="black" stroke-width="3"/>
<path d="M15.9164 7.13152C15.9071 3.93818 20.23 2.94309 21.6179 5.81909L52.6095 70.0428L16.1233 78.4415L15.9164 7.13152ZM20.6563 9.26019C20.0728 8.07801 18.2936 8.48756 18.2857 9.80588L18.1989 24.9877L27.3721 22.8761L20.6563 9.26019Z" fill="#121212"/>
</svg>
