<svg width="1219" height="665" viewBox="0 0 1219 665" fill="none" xmlns="http://www.w3.org/2000/svg">
<rect x="1.5" y="22.5" width="1201" height="641" rx="18.5" stroke="#121212" stroke-width="3"/>
<circle cx="55" cy="63" r="9" fill="#121212"/>
<circle cx="128" cy="63" r="9" fill="#121212"/>
<circle cx="201" cy="63" r="9" fill="#121212"/>
<circle cx="274" cy="63" r="9" fill="#121212"/>
<circle cx="347" cy="63" r="9" fill="#121212"/>
<circle cx="420" cy="63" r="9" fill="#121212"/>
<circle cx="493" cy="63" r="9" fill="#121212"/>
<circle cx="566" cy="63" r="9" fill="#121212"/>
<circle cx="639" cy="63" r="9" fill="#121212"/>
<circle cx="712" cy="63" r="9" fill="#121212"/>
<circle cx="785" cy="63" r="9" fill="#121212"/>
<circle cx="858" cy="63" r="9" fill="#121212"/>
<circle cx="931" cy="63" r="9" fill="#121212"/>
<circle cx="1004" cy="63" r="9" fill="#121212"/>
<circle cx="1077" cy="63" r="9" fill="#121212"/>
<circle cx="1150" cy="63" r="9" fill="#121212"/>
<path d="M83.5 0C99.4013 0 113.16 9.16519 119.787 22.5H108.122C102.573 14.9222 93.612 10 83.5 10C66.6553 10 53 23.6553 53 40.5C53 47.9135 55.6461 54.7084 60.0439 59.9941L52.2266 66.2354C46.462 59.2384 43 50.2735 43 40.5C43 18.1325 61.1325 0 83.5 0Z" fill="#121212"/>
<path d="M156.5 0C172.401 0 186.16 9.16519 192.787 22.5H181.122C175.573 14.9222 166.612 10 156.5 10C139.655 10 126 23.6553 126 40.5C126 47.9135 128.646 54.7084 133.044 59.9941L125.227 66.2354C119.462 59.2384 116 50.2735 116 40.5C116 18.1325 134.132 0 156.5 0Z" fill="#121212"/>
<path d="M229.5 0C245.401 0 259.16 9.16519 265.787 22.5H254.122C248.573 14.9222 239.612 10 229.5 10C212.655 10 199 23.6553 199 40.5C199 47.9135 201.646 54.7084 206.044 59.9941L198.227 66.2354C192.462 59.2384 189 50.2735 189 40.5C189 18.1325 207.132 0 229.5 0Z" fill="#121212"/>
<path d="M302.5 0C318.401 0 332.16 9.16519 338.787 22.5H327.122C321.573 14.9222 312.612 10 302.5 10C285.655 10 272 23.6553 272 40.5C272 47.9135 274.646 54.7084 279.044 59.9941L271.227 66.2354C265.462 59.2384 262 50.2735 262 40.5C262 18.1325 280.132 0 302.5 0Z" fill="#121212"/>
<path d="M375.5 0C391.401 0 405.16 9.16519 411.787 22.5H400.122C394.573 14.9222 385.612 10 375.5 10C358.655 10 345 23.6553 345 40.5C345 47.9135 347.646 54.7084 352.044 59.9941L344.227 66.2354C338.462 59.2384 335 50.2735 335 40.5C335 18.1325 353.132 0 375.5 0Z" fill="#121212"/>
<path d="M448.5 0C464.401 0 478.16 9.16519 484.787 22.5H473.122C467.573 14.9222 458.612 10 448.5 10C431.655 10 418 23.6553 418 40.5C418 47.9135 420.646 54.7084 425.044 59.9941L417.227 66.2354C411.462 59.2384 408 50.2735 408 40.5C408 18.1325 426.132 0 448.5 0Z" fill="#121212"/>
<path d="M521.5 0C537.401 0 551.16 9.16519 557.787 22.5H546.122C540.573 14.9222 531.612 10 521.5 10C504.655 10 491 23.6553 491 40.5C491 47.9135 493.646 54.7084 498.044 59.9941L490.227 66.2354C484.462 59.2384 481 50.2735 481 40.5C481 18.1325 499.132 0 521.5 0Z" fill="#121212"/>
<path d="M594.5 0C610.401 0 624.16 9.16519 630.787 22.5H619.122C613.573 14.9222 604.612 10 594.5 10C577.655 10 564 23.6553 564 40.5C564 47.9135 566.646 54.7084 571.044 59.9941L563.227 66.2354C557.462 59.2384 554 50.2735 554 40.5C554 18.1325 572.132 0 594.5 0Z" fill="#121212"/>
<path d="M667.5 0C683.401 0 697.16 9.16519 703.787 22.5H692.122C686.573 14.9222 677.612 10 667.5 10C650.655 10 637 23.6553 637 40.5C637 47.9135 639.646 54.7084 644.044 59.9941L636.227 66.2354C630.462 59.2384 627 50.2735 627 40.5C627 18.1325 645.132 0 667.5 0Z" fill="#121212"/>
<path d="M740.5 0C756.401 0 770.16 9.16519 776.787 22.5H765.122C759.573 14.9222 750.612 10 740.5 10C723.655 10 710 23.6553 710 40.5C710 47.9135 712.646 54.7084 717.044 59.9941L709.227 66.2354C703.462 59.2384 700 50.2735 700 40.5C700 18.1325 718.132 0 740.5 0Z" fill="#121212"/>
<path d="M813.5 0C829.401 0 843.16 9.16519 849.787 22.5H838.122C832.573 14.9222 823.612 10 813.5 10C796.655 10 783 23.6553 783 40.5C783 47.9135 785.646 54.7084 790.044 59.9941L782.227 66.2354C776.462 59.2384 773 50.2735 773 40.5C773 18.1325 791.132 0 813.5 0Z" fill="#121212"/>
<path d="M886.5 0C902.401 0 916.16 9.16519 922.787 22.5H911.122C905.573 14.9222 896.612 10 886.5 10C869.655 10 856 23.6553 856 40.5C856 47.9135 858.646 54.7084 863.044 59.9941L855.227 66.2354C849.462 59.2384 846 50.2735 846 40.5C846 18.1325 864.132 0 886.5 0Z" fill="#121212"/>
<path d="M959.5 0C975.401 0 989.16 9.16519 995.787 22.5H984.122C978.573 14.9222 969.612 10 959.5 10C942.655 10 929 23.6553 929 40.5C929 47.9135 931.646 54.7084 936.044 59.9941L928.227 66.2354C922.462 59.2384 919 50.2735 919 40.5C919 18.1325 937.132 0 959.5 0Z" fill="#121212"/>
<path d="M1032.5 0C1048.4 0 1062.16 9.16519 1068.79 22.5H1057.12C1051.57 14.9222 1042.61 10 1032.5 10C1015.66 10 1002 23.6553 1002 40.5C1002 47.9135 1004.65 54.7084 1009.04 59.9941L1001.23 66.2354C995.462 59.2384 992 50.2735 992 40.5C992 18.1325 1010.13 0 1032.5 0Z" fill="#121212"/>
<path d="M1105.5 0C1121.4 0 1135.16 9.16519 1141.79 22.5H1130.12C1124.57 14.9222 1115.61 10 1105.5 10C1088.66 10 1075 23.6553 1075 40.5C1075 47.9135 1077.65 54.7084 1082.04 59.9941L1074.23 66.2354C1068.46 59.2384 1065 50.2735 1065 40.5C1065 18.1325 1083.13 0 1105.5 0Z" fill="#121212"/>
<path d="M1178.5 0C1200.87 0 1219 18.1325 1219 40.5C1219 53.8837 1212.51 65.7491 1202.5 73.123V59.3232C1206.57 54.1391 1209 47.6032 1209 40.5C1209 23.6553 1195.34 10 1178.5 10C1161.66 10 1148 23.6553 1148 40.5C1148 48.3168 1150.94 55.4455 1155.78 60.8428L1148.52 67.7266C1141.98 60.5348 1138 50.9824 1138 40.5C1138 18.1325 1156.13 0 1178.5 0Z" fill="#121212"/>
</svg>
