<svg width="33" height="70" viewBox="0 0 33 70" fill="none" xmlns="http://www.w3.org/2000/svg">
<path d="M4.22561 65.8592C1.40854 63.0986 0 59.2535 0 54.3239V49.2958H11.9726V53.7324C11.9726 57.2817 13.3811 59.0563 16.2988 59.0563C17.9085 59.0563 19.1159 58.5634 19.7195 57.5775C20.3232 56.5915 20.625 55.1127 20.625 53.0423V46.0423C20.625 43.6761 20.2226 41.9014 19.6189 40.9155C18.9146 39.9296 17.6067 39.4366 15.5945 39.4366H12.9787V28.5916H15.7957C17.7073 28.5916 19.0153 28.1972 19.6189 27.2113C20.2226 26.2254 20.625 24.7465 20.625 22.5775V16.9577C20.625 14.9859 20.2226 13.4085 19.6189 12.4225C19.0153 11.4366 17.9085 10.9437 16.2988 10.9437C13.3811 10.9437 11.9726 12.7183 11.9726 16.2676V20.4085H0V15.5775C0 10.8451 1.40853 7 4.32622 4.23944C7.2439 1.47887 11.2683 0 16.5 0C21.7317 0 25.7561 1.47887 28.6738 4.23944C31.4909 7.09859 33 11.1408 33 16.2676V20.9014C33 24.2535 32.497 26.8169 31.4909 28.7887C30.4848 30.7606 28.6738 32.338 26.0579 33.5211C28.875 34.7042 30.686 36.2817 31.5915 38.2535C32.497 40.2254 33 43.0845 33 46.6338V53.6338C33 58.7606 31.4909 62.8028 28.5732 65.662C25.6555 68.6197 21.6311 70 16.3994 70C11.0671 70 7.04268 68.6197 4.22561 65.8592Z" fill="black"/>
</svg>
