<svg width="278" height="644" viewBox="0 0 278 644" fill="none" xmlns="http://www.w3.org/2000/svg">
<rect x="1.5" y="1.5" width="275" height="641" rx="18.5" stroke="#121212" stroke-width="3"/>
<rect x="23" y="21" width="232" height="318" rx="15" fill="#121212"/>
<path d="M79.6004 68.6055L74.7859 77.5898V83H71.7781V77.5898L66.7977 68.6055H70.3426L73.3309 74.875L76.1922 68.6055H79.6004ZM87.2863 83.4004C85.229 83.4004 83.6568 82.8405 82.5695 81.7207C81.1112 80.347 80.382 78.3678 80.382 75.7832C80.382 73.1465 81.1112 71.1673 82.5695 69.8457C83.6568 68.7259 85.229 68.166 87.2863 68.166C89.3436 68.166 90.9159 68.7259 92.0031 69.8457C93.4549 71.1673 94.1809 73.1465 94.1809 75.7832C94.1809 78.3678 93.4549 80.347 92.0031 81.7207C90.9159 82.8405 89.3436 83.4004 87.2863 83.4004ZM90.1281 79.5332C90.8247 78.6543 91.173 77.4043 91.173 75.7832C91.173 74.1686 90.8215 72.9219 90.1184 72.043C89.4217 71.1576 88.4777 70.7148 87.2863 70.7148C86.0949 70.7148 85.1444 71.1543 84.4348 72.0332C83.7251 72.9121 83.3703 74.1621 83.3703 75.7832C83.3703 77.4043 83.7251 78.6543 84.4348 79.5332C85.1444 80.4121 86.0949 80.8516 87.2863 80.8516C88.4777 80.8516 89.425 80.4121 90.1281 79.5332ZM104.601 77.4531V68.6055H107.658V77.4531C107.658 78.9831 107.42 80.1745 106.945 81.0273C106.06 82.5898 104.37 83.3711 101.877 83.3711C99.3831 83.3711 97.6904 82.5898 96.7984 81.0273C96.3232 80.1745 96.0855 78.9831 96.0855 77.4531V68.6055H99.1422V77.4531C99.1422 78.4427 99.2594 79.1654 99.4937 79.6211C99.8583 80.4284 100.653 80.832 101.877 80.832C103.094 80.832 103.885 80.4284 104.25 79.6211C104.484 79.1654 104.601 78.4427 104.601 77.4531ZM116.252 77.3555H113.146V83H110.207V68.6055H117.268C118.277 68.625 119.051 68.7487 119.592 68.9766C120.139 69.2044 120.601 69.5397 120.979 69.9824C121.291 70.347 121.538 70.7507 121.721 71.1934C121.903 71.6361 121.994 72.1406 121.994 72.707C121.994 73.3906 121.822 74.0645 121.477 74.7285C121.132 75.3861 120.562 75.8516 119.768 76.125C120.432 76.3919 120.9 76.7728 121.174 77.2676C121.454 77.7559 121.594 78.5046 121.594 79.5137V80.4805C121.594 81.138 121.62 81.584 121.672 81.8184C121.75 82.1895 121.932 82.4629 122.219 82.6387V83H118.908C118.817 82.681 118.752 82.4238 118.713 82.2285C118.635 81.8249 118.592 81.4115 118.586 80.9883L118.566 79.6504C118.553 78.7324 118.384 78.1204 118.059 77.8145C117.74 77.5085 117.137 77.3555 116.252 77.3555ZM118.078 74.7383C118.677 74.4648 118.977 73.9245 118.977 73.1172C118.977 72.2448 118.687 71.6589 118.107 71.3594C117.782 71.1901 117.294 71.1055 116.643 71.1055H113.146V74.9727H116.555C117.232 74.9727 117.74 74.8945 118.078 74.7383ZM135.471 77.8242H132.415V83H129.427V68.6055H135.696C137.141 68.6055 138.294 68.9766 139.153 69.7188C140.012 70.4609 140.442 71.61 140.442 73.166C140.442 74.8652 140.012 76.0664 139.153 76.7695C138.294 77.4727 137.067 77.8242 135.471 77.8242ZM136.878 74.8262C137.268 74.4811 137.464 73.9342 137.464 73.1855C137.464 72.4368 137.265 71.903 136.868 71.584C136.477 71.265 135.927 71.1055 135.218 71.1055H132.415V75.3438H135.218C135.927 75.3438 136.481 75.1712 136.878 74.8262ZM142.298 68.6055H145.306V80.4121H152.435V83H142.298V68.6055ZM162.552 80.041H157.25L156.254 83H153.109L158.246 68.6055H161.644L166.742 83H163.48L162.552 80.041ZM161.712 77.5605L159.916 71.8965L158.06 77.5605H161.712ZM177.963 68.6055L173.148 77.5898V83H170.141V77.5898L165.16 68.6055H168.705L171.693 74.875L174.555 68.6055H177.963ZM179.047 68.6055H182.036V83H179.047V68.6055ZM196.089 83H193.081L187.202 72.7754V83H184.399V68.6055H187.554L193.286 78.6543V68.6055H196.089V83ZM207.329 82.6484C206.535 83.1367 205.558 83.3809 204.4 83.3809C202.492 83.3809 200.93 82.7201 199.712 81.3984C198.443 80.0703 197.808 78.2539 197.808 75.9492C197.808 73.6185 198.449 71.75 199.732 70.3438C201.014 68.9375 202.71 68.2344 204.82 68.2344C206.649 68.2344 208.117 68.6999 209.224 69.6309C210.337 70.5553 210.975 71.7109 211.138 73.0977H208.179C207.951 72.1146 207.394 71.4277 206.509 71.0371C206.014 70.8223 205.464 70.7148 204.859 70.7148C203.7 70.7148 202.746 71.1543 201.997 72.0332C201.255 72.9056 200.884 74.2207 200.884 75.9785C200.884 77.7493 201.288 79.0026 202.095 79.7383C202.902 80.474 203.82 80.8418 204.849 80.8418C205.858 80.8418 206.685 80.5521 207.329 79.9727C207.974 79.3867 208.371 78.6217 208.521 77.6777H205.191V75.2754H211.187V83H209.195L208.892 81.2031C208.312 81.8867 207.792 82.3685 207.329 82.6484Z" fill="white"/>
<circle cx="34" cy="433" r="5" fill="#121212"/>
<circle cx="34" cy="448" r="5" fill="#121212"/>
<circle cx="34" cy="463" r="5" fill="#121212"/>
<circle cx="34" cy="478" r="5" fill="#121212"/>
<circle cx="34" cy="493" r="5" fill="#121212"/>
<circle cx="34" cy="508" r="5" fill="#121212"/>
<circle cx="34" cy="523" r="5" fill="#121212"/>
<circle cx="34" cy="538" r="5" fill="#121212"/>
<circle cx="34" cy="553" r="5" fill="#121212"/>
<circle cx="34" cy="568" r="5" fill="#121212"/>
<circle cx="34" cy="583" r="5" fill="#121212"/>
<circle cx="34" cy="598" r="5" fill="#121212"/>
<circle cx="49" cy="433" r="5" fill="#121212"/>
<circle cx="49" cy="448" r="5" fill="#121212"/>
<circle cx="49" cy="463" r="5" fill="#121212"/>
<circle cx="49" cy="478" r="5" fill="#121212"/>
<circle cx="49" cy="493" r="5" fill="#121212"/>
<circle cx="49" cy="508" r="5" fill="#121212"/>
<circle cx="49" cy="523" r="5" fill="#121212"/>
<circle cx="49" cy="538" r="5" fill="#121212"/>
<circle cx="49" cy="553" r="5" fill="#121212"/>
<circle cx="49" cy="568" r="5" fill="#121212"/>
<circle cx="49" cy="583" r="5" fill="#121212"/>
<circle cx="49" cy="598" r="5" fill="#121212"/>
<circle cx="64" cy="433" r="5" fill="#121212"/>
<circle cx="64" cy="448" r="5" fill="#121212"/>
<circle cx="64" cy="463" r="5" fill="#121212"/>
<circle cx="64" cy="478" r="5" fill="#121212"/>
<circle cx="64" cy="493" r="5" fill="#121212"/>
<circle cx="64" cy="508" r="5" fill="#121212"/>
<circle cx="64" cy="523" r="5" fill="#121212"/>
<circle cx="64" cy="538" r="5" fill="#121212"/>
<circle cx="64" cy="553" r="5" fill="#121212"/>
<circle cx="64" cy="568" r="5" fill="#121212"/>
<circle cx="64" cy="583" r="5" fill="#121212"/>
<circle cx="64" cy="598" r="5" fill="#121212"/>
<circle cx="79" cy="433" r="5" fill="#121212"/>
<circle cx="79" cy="448" r="5" fill="#121212"/>
<circle cx="79" cy="463" r="5" fill="#121212"/>
<circle cx="79" cy="478" r="5" fill="#121212"/>
<circle cx="79" cy="493" r="5" fill="#121212"/>
<circle cx="79" cy="508" r="5" fill="#121212"/>
<circle cx="79" cy="523" r="5" fill="#121212"/>
<circle cx="79" cy="538" r="5" fill="#121212"/>
<circle cx="79" cy="553" r="5" fill="#121212"/>
<circle cx="79" cy="568" r="5" fill="#121212"/>
<circle cx="79" cy="583" r="5" fill="#121212"/>
<circle cx="79" cy="598" r="5" fill="#121212"/>
<circle cx="94" cy="433" r="5" fill="#121212"/>
<circle cx="94" cy="448" r="5" fill="#121212"/>
<circle cx="94" cy="463" r="5" fill="#121212"/>
<circle cx="94" cy="478" r="5" fill="#121212"/>
<circle cx="94" cy="493" r="5" fill="#121212"/>
<circle cx="94" cy="508" r="5" fill="#121212"/>
<circle cx="94" cy="523" r="5" fill="#121212"/>
<circle cx="94" cy="538" r="5" fill="#121212"/>
<circle cx="94" cy="553" r="5" fill="#121212"/>
<circle cx="94" cy="568" r="5" fill="#121212"/>
<circle cx="94" cy="583" r="5" fill="#121212"/>
<circle cx="94" cy="598" r="5" fill="#121212"/>
<circle cx="109" cy="433" r="5" fill="#121212"/>
<circle cx="109" cy="448" r="5" fill="#121212"/>
<circle cx="109" cy="463" r="5" fill="#121212"/>
<circle cx="109" cy="478" r="5" fill="#121212"/>
<circle cx="109" cy="493" r="5" fill="#121212"/>
<circle cx="109" cy="508" r="5" fill="#121212"/>
<circle cx="109" cy="523" r="5" fill="#121212"/>
<circle cx="109" cy="538" r="5" fill="#121212"/>
<circle cx="109" cy="553" r="5" fill="#121212"/>
<circle cx="109" cy="568" r="5" fill="#121212"/>
<circle cx="109" cy="583" r="5" fill="#121212"/>
<circle cx="109" cy="598" r="5" fill="#121212"/>
<circle cx="124" cy="433" r="5" fill="#121212"/>
<circle cx="124" cy="448" r="5" fill="#121212"/>
<circle cx="124" cy="463" r="5" fill="#121212"/>
<circle cx="124" cy="478" r="5" fill="#121212"/>
<circle cx="124" cy="493" r="5" fill="#121212"/>
<circle cx="124" cy="508" r="5" fill="#121212"/>
<circle cx="124" cy="523" r="5" fill="#121212"/>
<circle cx="124" cy="538" r="5" fill="#121212"/>
<circle cx="124" cy="553" r="5" fill="#121212"/>
<circle cx="124" cy="568" r="5" fill="#121212"/>
<circle cx="124" cy="583" r="5" fill="#121212"/>
<circle cx="124" cy="598" r="5" fill="#121212"/>
<circle cx="139" cy="433" r="5" fill="#121212"/>
<circle cx="139" cy="448" r="5" fill="#121212"/>
<circle cx="139" cy="463" r="5" fill="#121212"/>
<circle cx="139" cy="478" r="5" fill="#121212"/>
<circle cx="139" cy="493" r="5" fill="#121212"/>
<circle cx="139" cy="508" r="5" fill="#121212"/>
<circle cx="139" cy="523" r="5" fill="#121212"/>
<circle cx="139" cy="538" r="5" fill="#121212"/>
<circle cx="139" cy="553" r="5" fill="#121212"/>
<circle cx="139" cy="568" r="5" fill="#121212"/>
<circle cx="139" cy="583" r="5" fill="#121212"/>
<circle cx="139" cy="598" r="5" fill="#121212"/>
<circle cx="154" cy="433" r="5" fill="#121212"/>
<circle cx="154" cy="448" r="5" fill="#121212"/>
<circle cx="154" cy="463" r="5" fill="#121212"/>
<circle cx="154" cy="478" r="5" fill="#121212"/>
<circle cx="154" cy="493" r="5" fill="#121212"/>
<circle cx="154" cy="508" r="5" fill="#121212"/>
<circle cx="154" cy="523" r="5" fill="#121212"/>
<circle cx="154" cy="538" r="5" fill="#121212"/>
<circle cx="154" cy="553" r="5" fill="#121212"/>
<circle cx="154" cy="568" r="5" fill="#121212"/>
<circle cx="154" cy="583" r="5" fill="#121212"/>
<circle cx="154" cy="598" r="5" fill="#121212"/>
<circle cx="169" cy="433" r="5" fill="#121212"/>
<circle cx="169" cy="448" r="5" fill="#121212"/>
<circle cx="169" cy="463" r="5" fill="#121212"/>
<circle cx="169" cy="478" r="5" fill="#121212"/>
<circle cx="169" cy="493" r="5" fill="#121212"/>
<circle cx="169" cy="508" r="5" fill="#121212"/>
<circle cx="169" cy="523" r="5" fill="#121212"/>
<circle cx="169" cy="538" r="5" fill="#121212"/>
<circle cx="169" cy="553" r="5" fill="#121212"/>
<circle cx="169" cy="568" r="5" fill="#121212"/>
<circle cx="169" cy="583" r="5" fill="#121212"/>
<circle cx="169" cy="598" r="5" fill="#121212"/>
<circle cx="184" cy="433" r="5" fill="#121212"/>
<circle cx="184" cy="448" r="5" fill="#121212"/>
<circle cx="184" cy="463" r="5" fill="#121212"/>
<circle cx="184" cy="478" r="5" fill="#121212"/>
<circle cx="184" cy="493" r="5" fill="#121212"/>
<circle cx="184" cy="508" r="5" fill="#121212"/>
<circle cx="184" cy="523" r="5" fill="#121212"/>
<circle cx="184" cy="538" r="5" fill="#121212"/>
<circle cx="184" cy="553" r="5" fill="#121212"/>
<circle cx="184" cy="568" r="5" fill="#121212"/>
<circle cx="184" cy="583" r="5" fill="#121212"/>
<circle cx="184" cy="598" r="5" fill="#121212"/>
<circle cx="199" cy="433" r="5" fill="#121212"/>
<circle cx="199" cy="448" r="5" fill="#121212"/>
<circle cx="199" cy="463" r="5" fill="#121212"/>
<circle cx="199" cy="478" r="5" fill="#121212"/>
<circle cx="199" cy="493" r="5" fill="#121212"/>
<circle cx="199" cy="508" r="5" fill="#121212"/>
<circle cx="199" cy="523" r="5" fill="#121212"/>
<circle cx="199" cy="538" r="5" fill="#121212"/>
<circle cx="199" cy="553" r="5" fill="#121212"/>
<circle cx="199" cy="568" r="5" fill="#121212"/>
<circle cx="199" cy="583" r="5" fill="#121212"/>
<circle cx="199" cy="598" r="5" fill="#121212"/>
<circle cx="214" cy="433" r="5" fill="#121212"/>
<circle cx="229" cy="433" r="5" fill="#121212"/>
<circle cx="244" cy="433" r="5" fill="#121212"/>
<circle cx="214" cy="448" r="5" fill="#121212"/>
<circle cx="229" cy="448" r="5" fill="#121212"/>
<circle cx="244" cy="448" r="5" fill="#121212"/>
<circle cx="214" cy="463" r="5" fill="#121212"/>
<circle cx="229" cy="463" r="5" fill="#121212"/>
<circle cx="244" cy="463" r="5" fill="#121212"/>
<circle cx="214" cy="478" r="5" fill="#121212"/>
<circle cx="229" cy="478" r="5" fill="#121212"/>
<circle cx="244" cy="478" r="5" fill="#121212"/>
<circle cx="214" cy="493" r="5" fill="#121212"/>
<circle cx="229" cy="493" r="5" fill="#121212"/>
<circle cx="244" cy="493" r="5" fill="#121212"/>
<circle cx="214" cy="508" r="5" fill="#121212"/>
<circle cx="229" cy="508" r="5" fill="#121212"/>
<circle cx="244" cy="508" r="5" fill="#121212"/>
<circle cx="214" cy="523" r="5" fill="#121212"/>
<circle cx="229" cy="523" r="5" fill="#121212"/>
<circle cx="244" cy="523" r="5" fill="#121212"/>
<circle cx="214" cy="538" r="5" fill="#121212"/>
<circle cx="229" cy="538" r="5" fill="#121212"/>
<circle cx="244" cy="538" r="5" fill="#121212"/>
<circle cx="214" cy="553" r="5" fill="#121212"/>
<circle cx="229" cy="553" r="5" fill="#121212"/>
<circle cx="244" cy="553" r="5" fill="#121212"/>
<circle cx="214" cy="568" r="5" fill="#121212"/>
<circle cx="229" cy="568" r="5" fill="#121212"/>
<circle cx="244" cy="568" r="5" fill="#121212"/>
<circle cx="214" cy="583" r="5" fill="#121212"/>
<circle cx="229" cy="583" r="5" fill="#121212"/>
<circle cx="244" cy="583" r="5" fill="#121212"/>
<circle cx="214" cy="598" r="5" fill="#121212"/>
<circle cx="229" cy="598" r="5" fill="#121212"/>
<circle cx="244" cy="598" r="5" fill="#121212"/>
<rect x="31.5" y="403.5" width="216" height="8" rx="4" stroke="#121212" stroke-width="3"/>
<rect x="31.5" y="387.5" width="216" height="8" rx="4" stroke="#121212" stroke-width="3"/>
<rect x="31.5" y="355.5" width="216" height="8" rx="4" stroke="#121212" stroke-width="3"/>
<rect x="31.5" y="371.5" width="216" height="8" rx="4" stroke="#121212" stroke-width="3"/>
</svg>
