<svg width="39" height="70" viewBox="0 0 39 70" fill="none" xmlns="http://www.w3.org/2000/svg">
<path d="M5.09645 64.4897C1.66615 61.1574 0 56.355 0 49.9844V19.5037C0 13.1332 1.76416 8.33074 5.39048 4.99844C8.91879 1.66615 13.7212 0 19.6017 0C25.1882 0 29.6966 1.66615 33.1269 4.80243C36.6552 8.03671 38.3214 12.7411 38.3214 19.0137V21.0719H26.2663V19.0137C26.2663 16.4655 25.6783 14.4073 24.3061 13.0352C23.032 11.663 21.3659 10.879 19.3077 10.879C16.7595 10.879 14.8973 11.761 13.7212 13.5252C12.5451 15.2894 12.0551 17.9356 12.0551 21.4639V48.6123C12.0551 55.2769 14.4073 58.5112 19.3077 58.5112C21.6599 58.5112 23.4241 57.7271 24.6002 56.159C25.7763 54.5908 26.3643 52.2386 26.3643 49.2004V42.0457H19.2097V32.5389H38.4194V49.9844C38.4194 56.257 36.5572 61.0594 32.9309 64.3917C29.3046 67.724 24.6002 69.3901 18.9157 69.3901C13.0352 69.3901 8.42875 67.822 5.09645 64.4897Z" fill="black"/>
</svg>
