<svg width="185" height="80" viewBox="0 0 185 80" fill="none" xmlns="http://www.w3.org/2000/svg">
<path d="M184.01 45V79.5H177.86L170.66 61.1V79.5H164.51V45H170.66L177.86 64.2V45H184.01Z" fill="black"/>
<path d="M155.292 72.8H147.242L145.842 79.5H139.442L148.292 45H154.292L163.092 79.5H156.692L155.292 72.8ZM154.192 67.3L151.292 53.3L148.392 67.3H154.192Z" fill="black"/>
<path d="M138.028 45V79.5H131.878V59.3L127.478 72.8H124.178L119.828 59.45V79.5H113.678V45H119.828L125.828 63.2L131.878 45H138.028Z" fill="black"/>
<path d="M96.2297 78.75C94.8297 77.95 93.6797 76.85 92.8797 75.4C92.0797 74 91.6797 72.35 91.6797 70.45V45H97.8297V70.3C97.8297 71.7 98.0797 72.75 98.6297 73.4C99.1297 74.05 99.9797 74.35 101.08 74.35C103.23 74.35 104.33 73 104.33 70.3V45H110.48V70.45C110.48 72.35 110.08 74 109.28 75.4C108.48 76.85 107.33 77.95 105.93 78.75C104.48 79.55 102.88 79.9 101.08 79.9C99.2797 79.9 97.6297 79.55 96.2297 78.75Z" fill="black"/>
<path d="M88.4816 45V79.5H82.3316V64.7H75.8316V79.5H69.6816V45H75.8316V59.2H82.3316V45H88.4816Z" fill="black"/>
<path d="M49.0434 65.65H46.0934V79.5H39.9434V45H49.3434C52.7434 45 55.1434 45.85 56.5434 47.45C57.9434 49.1 58.6934 51.7 58.6934 55.3C58.6934 57.6 58.3434 59.55 57.7434 61.05C57.0934 62.6 56.0434 63.75 54.6434 64.5L59.7934 79.5H53.3934L49.0434 65.65ZM46.0934 60.15H49.2934C50.4934 60.15 51.3434 59.75 51.8434 58.95C52.2934 58.15 52.5434 56.9 52.5434 55.3C52.5434 53.7 52.2934 52.5 51.8434 51.7C51.3934 50.9 50.5434 50.5 49.2934 50.5H46.0934V60.15Z" fill="black"/>
<path d="M19.9555 77.4C18.2055 75.7 17.3555 73.25 17.3555 70V54.45C17.3555 51.2 18.2555 48.75 20.1055 47.05C21.9055 45.35 24.3555 44.5 27.3555 44.5C30.2555 44.5 32.5555 45.35 34.3055 47.05C36.0555 48.75 36.9555 51.2 36.9555 54.45V70C36.9555 73.2 36.0055 75.65 34.1555 77.35C32.3055 79.05 29.9055 79.9 27.0055 79.9C24.0055 79.9 21.6555 79.1 19.9555 77.4ZM29.8555 73.05C30.4555 72.15 30.8055 70.9 30.8055 69.3V55.45C30.8055 53.7 30.5055 52.35 29.9055 51.45C29.3055 50.55 28.4055 50.1 27.2055 50.1C25.9055 50.1 24.9555 50.55 24.3555 51.45C23.7555 52.35 23.5055 53.7 23.5055 55.5V69.35C23.5055 72.7 24.7055 74.4 27.2055 74.4C28.3555 74.4 29.2555 73.95 29.8555 73.05Z" fill="black"/>
<path d="M6.15 50.55V59.35H14.15V64.9H6.15V79.5H0V45H15.4V50.55H6.15Z" fill="black"/>
<path d="M168.832 0H174.982V29H184.232V34.5H168.832V0Z" fill="black"/>
<path d="M159.615 27.8H151.565L150.165 34.5H143.765L152.615 0H158.615L167.415 34.5H161.015L159.615 27.8ZM158.515 22.3L155.615 8.3L152.715 22.3H158.515Z" fill="black"/>
<path d="M128.605 33.75C127.205 32.95 126.055 31.85 125.255 30.4C124.455 29 124.055 27.35 124.055 25.45V0H130.205V25.3C130.205 26.7 130.455 27.75 131.005 28.4C131.505 29.05 132.355 29.35 133.455 29.35C135.605 29.35 136.705 28 136.705 25.3V0H142.855V25.45C142.855 27.35 142.455 29 141.655 30.4C140.855 31.85 139.705 32.95 138.305 33.75C136.855 34.55 135.255 34.9 133.455 34.9C131.655 34.9 130.005 34.55 128.605 33.75Z" fill="black"/>
<path d="M120.873 0V34.5H114.723L107.523 16.1V34.5H101.373V0H107.523L114.723 19.2V0H120.873Z" fill="black"/>
<path d="M92.1557 27.8H84.1057L82.7057 34.5H76.3057L85.1557 0H91.1557L99.9557 34.5H93.5557L92.1557 27.8ZM91.0557 22.3L88.1557 8.3L85.2557 22.3H91.0557Z" fill="black"/>
<path d="M74.891 0V34.5H68.741V14.3L64.341 27.8H61.041L56.691 14.45V34.5H50.541V0H56.691L62.691 18.2L68.741 0H74.891Z" fill="black"/>
</svg>
