<svg width="278" height="475" viewBox="0 0 278 475" fill="none" xmlns="http://www.w3.org/2000/svg">
<rect x="1.5" y="1.5" width="275" height="472" rx="18.5" stroke="#121212" stroke-width="3"/>
<rect x="25" y="22" width="229" height="229" rx="15" fill="#121212"/>
<rect x="121" y="363" width="16" height="55" rx="3" fill="#121212"/>
<rect x="143" y="363" width="16" height="55" rx="3" fill="#121212"/>
<path d="M28.5 297H249.5" stroke="#121212" stroke-opacity="0.3" stroke-width="8" stroke-linecap="round"/>
<path d="M29 297H178" stroke="#121212" stroke-width="8" stroke-linecap="round"/>
<path d="M64.8472 402.136C64.8469 404.795 61.6431 406.139 59.7456 404.275L47.898 392.641C46.7012 391.465 46.7013 389.536 47.898 388.36L59.7456 376.725C61.6432 374.861 64.8472 376.206 64.8472 378.865L64.8472 386.476L74.7739 376.725C76.6715 374.861 79.8765 376.206 79.8765 378.865L79.8765 402.136C79.8762 404.795 76.6714 406.139 74.7739 404.275L64.8472 394.526L64.8472 402.136Z" fill="#121212"/>
<path d="M215.03 378.864C215.03 376.205 218.234 374.861 220.131 376.724L231.979 388.359C233.176 389.535 233.176 391.464 231.979 392.64L220.131 404.275C218.234 406.139 215.03 404.794 215.03 402.135V394.524L205.103 404.275C203.205 406.139 200 404.794 200 402.135V378.864C200.001 376.205 203.206 374.86 205.103 376.724L215.03 386.474V378.864Z" fill="#121212"/>
</svg>
