<svg width="17" height="36" viewBox="0 0 17 36" fill="none" xmlns="http://www.w3.org/2000/svg">
<path d="M2.1 33.4C0.7 32 0 30.05 0 27.55V25H5.95V27.25C5.95 29.05 6.65 29.95 8.1 29.95C8.9 29.95 9.5 29.7 9.8 29.2C10.1 28.7 10.25 27.95 10.25 26.9V23.35C10.25 22.15 10.05 21.25 9.75 20.75C9.4 20.25 8.75 20 7.75 20H6.45V14.5H7.85C8.8 14.5 9.45 14.3 9.75 13.8C10.05 13.3 10.25 12.55 10.25 11.45V8.6C10.25 7.6 10.05 6.8 9.75 6.3C9.45 5.8 8.9 5.55 8.1 5.55C6.65 5.55 5.95 6.45 5.95 8.25V10.35H0V7.9C0 5.5 0.700001 3.55001 2.15 2.15001C3.6 0.750003 5.6 0 8.2 0C10.8 0 12.8 0.750003 14.25 2.15001C15.65 3.6 16.4 5.65 16.4 8.25V10.6C16.4 12.3 16.15 13.6 15.65 14.6C15.15 15.6 14.25 16.4 12.95 17C14.35 17.6 15.25 18.4 15.7 19.4C16.15 20.4 16.4 21.85 16.4 23.65V27.2C16.4 29.8 15.65 31.85 14.2 33.3C12.75 34.8 10.75 35.5 8.15 35.5C5.5 35.5 3.5 34.8 2.1 33.4Z" fill="black"/>
</svg>
