<svg width="1204" height="644" viewBox="0 0 1204 644" fill="none" xmlns="http://www.w3.org/2000/svg">
<rect x="1.5" y="1.5" width="1201" height="641" rx="18.5" stroke="#121212" stroke-width="3"/>
<rect x="29.5" y="27.5" width="1146" height="589" rx="13.5" stroke="#121212" stroke-width="3"/>
<path d="M43 27.5H1162C1169.46 27.5 1175.5 33.5442 1175.5 41V224.5H29.5V41C29.5 33.5442 35.5442 27.5 43 27.5Z" stroke="#121212" stroke-width="3"/>
<path d="M111.5 224.5V616.5H43C35.5442 616.5 29.5 610.456 29.5 603V224.5H111.5Z" stroke="#121212" stroke-width="3"/>
<rect x="111.5" y="224.5" width="82" height="392" stroke="#121212" stroke-width="3"/>
<rect x="193.5" y="224.5" width="82" height="392" stroke="#121212" stroke-width="3"/>
<rect x="275.5" y="224.5" width="82" height="392" stroke="#121212" stroke-width="3"/>
<rect x="357.5" y="224.5" width="82" height="392" stroke="#121212" stroke-width="3"/>
<rect x="439.5" y="224.5" width="82" height="392" stroke="#121212" stroke-width="3"/>
<rect x="521.5" y="224.5" width="82" height="392" stroke="#121212" stroke-width="3"/>
<rect x="603.5" y="224.5" width="82" height="392" stroke="#121212" stroke-width="3"/>
<rect x="685.5" y="224.5" width="82" height="392" stroke="#121212" stroke-width="3"/>
<rect x="767.5" y="224.5" width="82" height="392" stroke="#121212" stroke-width="3"/>
<rect x="849.5" y="224.5" width="82" height="392" stroke="#121212" stroke-width="3"/>
<rect x="931.5" y="224.5" width="82" height="392" stroke="#121212" stroke-width="3"/>
<rect x="1013.5" y="224.5" width="82" height="392" stroke="#121212" stroke-width="3"/>
<path d="M1175.5 224.5V603C1175.5 610.456 1169.46 616.5 1162 616.5H1095.5V224.5H1175.5Z" stroke="#121212" stroke-width="3"/>
<path d="M43 27.5H357.5V224.5H29.5V41C29.5 33.5442 35.5442 27.5 43 27.5Z" stroke="#121212" stroke-width="3"/>
<rect x="39" y="37" width="309" height="78" rx="39" fill="#121212"/>
<rect x="941.5" y="135.5" width="224" height="79" rx="39.5" stroke="#121212" stroke-width="3"/>
<rect x="920.5" y="115.5" width="224" height="79" rx="39.5" transform="rotate(-180 920.5 115.5)" stroke="#121212" stroke-width="3"/>
<rect x="368.5" y="137.5" width="306" height="75" rx="37.5" stroke="#121212" stroke-width="3"/>
<path d="M637 144C654.121 144 668 157.879 668 175C668 192.121 654.121 206 637 206H406C388.879 206 375 192.121 375 175C375 157.879 388.879 144 406 144H637ZM409 159C400.163 159 393 166.163 393 175C393 183.837 400.163 191 409 191H634C642.837 191 650 183.837 650 175C650 166.163 642.837 159 634 159H409Z" fill="#121212"/>
<path d="M685.5 27.5V224.5H357.5V27.5H685.5Z" stroke="#121212" stroke-width="3"/>
<path d="M335 132C343.284 132 350 138.716 350 147V202C350 210.284 343.284 217 335 217H298C289.716 217 283 210.284 283 202V147C283 138.716 289.716 132 298 132H335ZM316.5 142C311.806 142 308 145.806 308 150.5V198.5C308 203.194 311.806 207 316.5 207C321.194 207 325 203.194 325 198.5V150.5C325 145.806 321.194 142 316.5 142Z" fill="#121212"/>
<path d="M931.5 27.5V224.5H685.5V27.5H931.5Z" stroke="#121212" stroke-width="3"/>
<line x1="30" y1="124.5" x2="1177" y2="124.5" stroke="#121212" stroke-width="3"/>
<line x1="1055.5" y1="26" x2="1055.5" y2="126" stroke="#121212" stroke-width="3"/>
<line x1="806.5" y1="226" x2="806.5" y2="126" stroke="#121212" stroke-width="3"/>
<line x1="154.5" y1="126" x2="154.5" y2="226" stroke="#121212" stroke-width="3"/>
<rect x="368.5" y="37.5" width="306" height="78" rx="13.5" stroke="#121212" stroke-width="3"/>
<line x1="378.5" y1="37" x2="378.5" y2="115" stroke="#121212" stroke-width="3"/>
<line x1="389.5" y1="37" x2="389.5" y2="115" stroke="#121212" stroke-width="3"/>
<line x1="400.5" y1="37" x2="400.5" y2="115" stroke="#121212" stroke-width="3"/>
<line x1="411.5" y1="37" x2="411.5" y2="115" stroke="#121212" stroke-width="3"/>
<line x1="422.5" y1="37" x2="422.5" y2="115" stroke="#121212" stroke-width="3"/>
<line x1="433.5" y1="37" x2="433.5" y2="115" stroke="#121212" stroke-width="3"/>
<line x1="444.5" y1="37" x2="444.5" y2="115" stroke="#121212" stroke-width="3"/>
<line x1="455.5" y1="37" x2="455.5" y2="115" stroke="#121212" stroke-width="3"/>
<line x1="466.5" y1="37" x2="466.5" y2="115" stroke="#121212" stroke-width="3"/>
<line x1="477.5" y1="37" x2="477.5" y2="115" stroke="#121212" stroke-width="3"/>
<line x1="488.5" y1="37" x2="488.5" y2="115" stroke="#121212" stroke-width="3"/>
<line x1="499.5" y1="37" x2="499.5" y2="115" stroke="#121212" stroke-width="3"/>
<line x1="510.5" y1="37" x2="510.5" y2="115" stroke="#121212" stroke-width="3"/>
<line x1="521.5" y1="37" x2="521.5" y2="115" stroke="#121212" stroke-width="3"/>
<line x1="532.5" y1="37" x2="532.5" y2="115" stroke="#121212" stroke-width="3"/>
<line x1="543.5" y1="37" x2="543.5" y2="115" stroke="#121212" stroke-width="3"/>
<line x1="554.5" y1="37" x2="554.5" y2="115" stroke="#121212" stroke-width="3"/>
<line x1="565.5" y1="37" x2="565.5" y2="115" stroke="#121212" stroke-width="3"/>
<line x1="576.5" y1="37" x2="576.5" y2="115" stroke="#121212" stroke-width="3"/>
<line x1="587.5" y1="37" x2="587.5" y2="115" stroke="#121212" stroke-width="3"/>
<line x1="598.5" y1="37" x2="598.5" y2="115" stroke="#121212" stroke-width="3"/>
<line x1="609.5" y1="37" x2="609.5" y2="115" stroke="#121212" stroke-width="3"/>
<line x1="620.5" y1="37" x2="620.5" y2="115" stroke="#121212" stroke-width="3"/>
<line x1="653.5" y1="37" x2="653.5" y2="115" stroke="#121212" stroke-width="3"/>
<line x1="631.5" y1="37" x2="631.5" y2="115" stroke="#121212" stroke-width="3"/>
<line x1="664.5" y1="37" x2="664.5" y2="115" stroke="#121212" stroke-width="3"/>
<line x1="642.5" y1="37" x2="642.5" y2="115" stroke="#121212" stroke-width="3"/>
<line x1="275.5" y1="126" x2="275.5" y2="226" stroke="#121212" stroke-width="3"/>
<path d="M1115 44C1132.67 44 1147 58.3269 1147 76C1147 93.6731 1132.67 108 1115 108C1097.33 108 1083 93.6731 1083 76C1083 58.3269 1097.33 44 1115 44ZM1115 50C1112.24 50 1110 52.2386 1110 55C1110 57.7614 1112.24 60 1115 60C1117.76 60 1120 57.7614 1120 55C1120 52.2386 1117.76 50 1115 50Z" fill="#121212"/>
<circle cx="1115" cy="76" r="37.5" stroke="#121212" stroke-width="3"/>
<path d="M747 207C729.327 207 715 192.673 715 175C715 157.327 729.327 143 747 143C764.673 143 779 157.327 779 175C779 192.673 764.673 207 747 207ZM747 201C749.761 201 752 198.761 752 196C752 193.239 749.761 191 747 191C744.239 191 742 193.239 742 196C742 198.761 744.239 201 747 201Z" fill="#121212"/>
<circle cx="747" cy="175" r="37.5" transform="rotate(-180 747 175)" stroke="#121212" stroke-width="3"/>
<path d="M214 144C231.673 144 246 158.327 246 176C246 193.673 231.673 208 214 208C196.327 208 182 193.673 182 176C182 158.327 196.327 144 214 144ZM214 150C211.239 150 209 152.239 209 155C209 157.761 211.239 160 214 160C216.761 160 219 157.761 219 155C219 152.239 216.761 150 214 150Z" fill="#121212"/>
<circle cx="214" cy="176" r="37.5" stroke="#121212" stroke-width="3"/>
<circle cx="993" cy="76" r="37.5" stroke="#121212" stroke-width="3"/>
<circle cx="993" cy="76" r="30.5" stroke="#121212" stroke-width="3"/>
<circle cx="993" cy="96" r="5" fill="#121212"/>
<circle cx="869" cy="175" r="37.5" transform="rotate(-180 869 175)" stroke="#121212" stroke-width="3"/>
<circle cx="869" cy="175" r="30.5" transform="rotate(-180 869 175)" stroke="#121212" stroke-width="3"/>
<circle cx="869" cy="155" r="5" transform="rotate(-180 869 155)" fill="#121212"/>
<circle cx="92" cy="176" r="37.5" stroke="#121212" stroke-width="3"/>
<circle cx="92" cy="176" r="30.5" stroke="#121212" stroke-width="3"/>
<circle cx="92" cy="196" r="5" fill="#121212"/>
<path d="M92 223H131V438C131 440.761 128.761 443 126 443H97C94.2386 443 92 440.761 92 438V223Z" fill="#121212"/>
<path d="M174 223H213V438C213 440.761 210.761 443 208 443H179C176.239 443 174 440.761 174 438V223Z" fill="#121212"/>
<path d="M338 223H377V438C377 440.761 374.761 443 372 443H343C340.239 443 338 440.761 338 438V223Z" fill="#121212"/>
<path d="M420 223H459V438C459 440.761 456.761 443 454 443H425C422.239 443 420 440.761 420 438V223Z" fill="#121212"/>
<path d="M502 223H541V438C541 440.761 538.761 443 536 443H507C504.239 443 502 440.761 502 438V223Z" fill="#121212"/>
<path d="M666 223H705V438C705 440.761 702.761 443 700 443H671C668.239 443 666 440.761 666 438V223Z" fill="#121212"/>
<path d="M748 223H787V438C787 440.761 784.761 443 782 443H753C750.239 443 748 440.761 748 438V223Z" fill="#121212"/>
<path d="M912 223H951V438C951 440.761 948.761 443 946 443H917C914.239 443 912 440.761 912 438V223Z" fill="#121212"/>
<path d="M994 223H1033V438C1033 440.761 1030.76 443 1028 443H999C996.239 443 994 440.761 994 438V223Z" fill="#121212"/>
<path d="M1076 223H1115V438C1115 440.761 1112.76 443 1110 443H1081C1078.24 443 1076 440.761 1076 438V223Z" fill="#121212"/>
</svg>
