<svg width="38" height="70" viewBox="0 0 38 70" fill="none" xmlns="http://www.w3.org/2000/svg">
<path d="M4.80242 64.1957C1.66615 60.7654 0 55.8649 0 49.3964H11.369C11.467 52.7287 12.1531 55.1789 13.3292 56.747C14.5053 58.3152 16.2694 59.0992 18.6216 59.0992C20.9739 59.0992 22.738 58.3152 23.8161 56.943C24.8942 55.4729 25.3842 53.2187 25.3842 50.0824C25.3842 47.4362 24.7962 45.378 23.6201 43.8099C22.444 42.2417 20.3858 40.8696 17.5436 39.5955L12.9371 37.5373C8.52675 35.5771 5.39048 33.1269 3.4303 30.2847C1.47013 27.3444 0.490043 23.5221 0.490043 18.7197C0.490043 13.0352 2.15619 8.42875 5.48849 5.09645C8.82078 1.66615 13.2312 0 18.8177 0C24.4042 0 28.7165 1.66615 31.7548 4.99844C34.7931 8.33074 36.3612 13.2312 36.5572 19.6017H25.4823C25.4823 16.4655 24.8942 14.2113 23.9141 12.6431C22.934 11.075 21.1699 10.3889 18.8177 10.3889C14.5053 10.3889 12.2511 12.9371 12.2511 18.1316C12.2511 20.4838 12.8391 22.346 13.9172 23.7181C14.9953 25.0902 16.7595 26.3643 19.3077 27.4424L23.7181 29.4026C28.4225 31.5588 31.8528 34.107 34.009 37.2433C36.1652 40.3796 37.1453 44.5939 37.1453 49.7884C37.1453 56.061 35.5771 60.9614 32.2448 64.2937C29.0106 67.724 24.4042 69.3901 18.4256 69.3901C12.4471 69.3901 7.9387 67.724 4.80242 64.1957Z" fill="black"/>
</svg>
