<svg width="1819" height="317" viewBox="0 0 1819 317" fill="none" xmlns="http://www.w3.org/2000/svg">
<path d="M1735.8 54.1259V131.512H1807.37V180.717H1735.8V263.918H1819V313.123H1681.23V4.47363H1819V54.1259H1735.8Z" fill="black"/>
<path d="M1487.59 4.47363H1573.02C1598.97 4.47363 1619.55 12.078 1635.2 26.8395C1650.86 42.0483 1658.91 63.9669 1658.91 93.0426V224.554C1658.91 253.63 1650.41 275.548 1634.31 290.757C1617.76 305.966 1596.28 313.123 1570.34 313.123H1487.59V4.47363ZM1571.68 263.918C1581.97 263.918 1590.02 259.892 1595.39 251.84C1600.76 243.789 1603.89 232.606 1603.89 218.292V102.436C1603.89 86.7801 1601.21 74.7025 1595.84 66.6508C1590.47 58.5991 1582.42 54.1259 1571.68 54.1259H1542.16V263.918H1571.68Z" fill="black"/>
<path d="M1313.23 294.335C1297.58 279.126 1289.97 257.208 1289.97 228.132V89.0162C1289.97 59.9406 1298.03 38.022 1314.58 22.8132C1330.68 7.60441 1352.6 0 1379.44 0C1405.38 0 1425.96 7.60441 1441.61 22.8132C1457.27 38.022 1465.32 59.9406 1465.32 89.0162V228.132C1465.32 256.76 1456.82 278.679 1440.27 293.888C1423.72 309.097 1402.25 316.701 1376.31 316.701C1349.47 316.701 1328.44 309.544 1313.23 294.335ZM1401.8 255.418C1407.17 247.367 1410.3 236.184 1410.3 221.87V97.9626C1410.3 82.3065 1407.62 70.2289 1402.25 62.1772C1396.88 54.1254 1388.83 50.0996 1378.1 50.0996C1366.46 50.0996 1357.97 54.1254 1352.6 62.1772C1347.23 70.2289 1344.99 82.3065 1344.99 98.4099V222.317C1344.99 252.287 1355.73 267.496 1378.1 267.496C1388.38 267.496 1396.44 263.47 1401.8 255.418Z" fill="black"/>
<path d="M1267.48 4.47363V313.123H1212.46V132.407L1173.09 253.182H1143.57L1104.65 133.748V313.123H1049.63V4.47363H1104.65L1158.33 167.297L1212.46 4.47363H1267.48Z" fill="black"/>
<path d="M977.641 54.1259H924.41V313.123H869.837V54.1259H816.159V4.47363H977.641V54.1259Z" fill="black"/>
<path d="M667.748 292.993C653.434 277.337 645.829 254.971 645.829 225.448H697.718C698.165 240.657 701.297 251.84 706.664 258.997C712.032 266.154 720.084 269.733 730.819 269.733C741.555 269.733 749.607 266.154 754.527 259.892C759.448 253.182 761.684 242.894 761.684 228.579C761.684 216.502 759 207.108 753.633 199.951C748.265 192.794 738.871 186.531 725.899 180.716L704.875 171.323C684.746 162.376 670.432 151.193 661.485 138.221C652.539 124.802 648.066 107.356 648.066 85.4377C648.066 59.4933 655.67 38.4693 670.879 23.2605C686.088 7.60441 706.217 0 731.714 0C757.211 0 776.893 7.60441 790.76 22.8132C804.627 38.022 811.784 60.3879 812.679 89.4636H762.132C762.132 75.1494 759.448 64.8611 754.975 57.704C750.501 50.5469 742.45 47.4157 731.714 47.4157C712.032 47.4157 701.744 59.046 701.744 82.7538C701.744 93.4894 704.428 101.988 709.348 108.251C714.269 114.513 722.32 120.328 733.951 125.249L754.08 134.195C775.551 144.036 791.207 155.667 801.048 169.981C810.889 184.295 815.363 203.53 815.363 227.237C815.363 255.866 808.205 278.232 792.997 293.44C778.235 309.097 757.211 316.701 729.925 316.701C702.638 316.701 682.062 309.097 667.748 292.993Z" fill="black"/>
<path d="M575.659 4.47363H630.232V313.123H575.659V4.47363Z" fill="black"/>
<path d="M408.461 292.993C394.146 277.337 386.542 254.971 386.542 225.448H438.431C438.878 240.657 442.009 251.84 447.377 258.997C452.745 266.154 460.797 269.733 471.532 269.733C482.268 269.733 490.32 266.154 495.24 259.892C500.161 253.182 502.397 242.894 502.397 228.579C502.397 216.502 499.713 207.108 494.346 199.951C488.978 192.794 479.584 186.531 466.612 180.716L445.588 171.323C425.459 162.376 411.144 151.193 402.198 138.221C393.252 124.802 388.779 107.356 388.779 85.4377C388.779 59.4933 396.383 38.4693 411.592 23.2605C426.801 7.60441 446.93 0 472.427 0C497.924 0 517.606 7.60441 531.473 22.8132C545.34 38.022 552.497 60.3879 553.392 89.4636H502.845C502.845 75.1494 500.161 64.8611 495.688 57.704C491.214 50.5469 483.163 47.4157 472.427 47.4157C452.745 47.4157 442.457 59.046 442.457 82.7538C442.457 93.4894 445.141 101.988 450.061 108.251C454.982 114.513 463.033 120.328 474.664 125.249L494.793 134.195C516.264 144.036 531.92 155.667 541.761 169.981C551.602 184.295 556.075 203.53 556.075 227.237C556.075 255.866 548.918 278.232 533.71 293.44C518.948 309.097 497.924 316.701 470.638 316.701C443.351 316.701 422.775 309.097 408.461 292.993Z" fill="black"/>
<path d="M231.421 292.993C217.106 277.337 209.502 254.971 209.502 225.448H261.391C261.838 240.657 264.969 251.84 270.337 258.997C275.705 266.154 283.757 269.733 294.492 269.733C305.228 269.733 313.28 266.154 318.2 259.892C323.121 253.182 325.357 242.894 325.357 228.579C325.357 216.502 322.673 207.108 317.306 199.951C311.938 192.794 302.544 186.531 289.572 180.716L268.548 171.323C248.419 162.376 234.104 151.193 225.158 138.221C216.212 124.802 211.739 107.356 211.739 85.4377C211.739 59.4933 219.343 38.4693 234.552 23.2605C249.761 7.60441 269.89 0 295.387 0C320.884 0 340.566 7.60441 354.433 22.8132C368.3 38.022 375.457 60.3879 376.351 89.4636H325.805C325.805 75.1494 323.121 64.8611 318.647 57.704C314.174 50.5469 306.123 47.4157 295.387 47.4157C275.705 47.4157 265.417 59.046 265.417 82.7538C265.417 93.4894 268.101 101.988 273.021 108.251C277.942 114.513 285.993 120.328 297.624 125.249L317.753 134.195C339.224 144.036 354.88 155.667 364.721 169.981C374.562 184.295 379.035 203.53 379.035 227.237C379.035 255.866 371.878 278.232 356.669 293.44C341.908 309.097 320.884 316.701 293.598 316.701C266.311 316.701 245.735 309.097 231.421 292.993Z" fill="black"/>
<path d="M141.8 253.182H69.7816L57.2567 313.123H0L79.1752 4.47363H132.853L211.581 313.123H154.325L141.8 253.182ZM131.959 203.977L106.014 78.7284L80.0699 203.977H131.959Z" fill="black"/>
</svg>
